<svg>
<!-- header -->
<symbol viewBox="0 0 32 32" id="burger" xmlns="http://www.w3.org/2000/svg">
	<path d="M0.844 6.050c-0.256-0.256-0.381-0.581-0.381-0.975s0.125-0.719 0.381-0.975 0.581-0.381 0.975-0.381h28.512c0.394 0 0.719 0.125 0.975 0.381s0.381 0.581 0.381 0.975-0.125 0.719-0.381 0.975-0.581 0.381-0.975 0.381h-28.512c-0.394 0-0.719-0.125-0.975-0.381zM31.306 14.963c0.256 0.256 0.381 0.581 0.381 0.975s-0.125 0.719-0.381 0.975-0.581 0.381-0.975 0.381h-28.512c-0.394 0-0.719-0.125-0.975-0.381s-0.381-0.581-0.381-0.975 0.125-0.719 0.381-0.975 0.581-0.381 0.975-0.381h28.512c0.394 0 0.719 0.125 0.975 0.381zM31.306 25.819c0.256 0.256 0.381 0.581 0.381 0.975s-0.125 0.719-0.381 0.975-0.581 0.381-0.975 0.381h-28.512c-0.394 0-0.719-0.125-0.975-0.381s-0.381-0.581-0.381-0.975 0.125-0.719 0.381-0.975 0.581-0.381 0.975-0.381h28.512c0.394 0 0.719 0.131 0.975 0.381z"/>
</symbol>

<!-- advantages -->
<symbol viewBox="0 0 32 32" id="glasses" xmlns="http://www.w3.org/2000/svg">
	<path d="M31.194 15.201h-0.319c-0.395-3.303-3.202-5.864-6.611-5.864-3.168 0-5.813 2.212-6.491 5.174l-1.526-0.797c-0.154-0.080-0.339-0.080-0.493 0l-1.526 0.797c-0.677-2.962-3.323-5.174-6.491-5.174-3.41 0-6.216 2.562-6.612 5.864h-0.319c-0.442 0-0.8 0.358-0.8 0.8 0 0.441 0.358 0.799 0.8 0.799h0.319c0.396 3.303 3.202 5.864 6.612 5.864 3.68 0 6.664-2.983 6.664-6.664 0-0.124-0.012-0.245-0.019-0.368l1.618-0.845 1.618 0.845c-0.007 0.122-0.019 0.244-0.019 0.368 0 3.68 2.984 6.664 6.664 6.664 3.409 0 6.215-2.561 6.611-5.864h0.319c0.442 0 0.8-0.358 0.8-0.8s-0.358-0.8-0.8-0.8zM7.737 21.598c-3.087 0-5.598-2.511-5.598-5.598s2.511-5.598 5.598-5.598c3.087 0 5.598 2.511 5.598 5.598s-2.511 5.598-5.598 5.598zM24.263 21.598c-3.087 0-5.598-2.511-5.598-5.598s2.511-5.597 5.598-5.597c3.087 0 5.598 2.511 5.598 5.597s-2.511 5.598-5.598 5.598z"/>
</symbol>

<symbol viewBox="0 0 32 32" id="messages" xmlns="http://www.w3.org/2000/svg">
	<path d="M25 20.822c0.414-0 0.75-0.336 0.75-0.75v0-18.072c-0-0.414-0.336-0.75-0.75-0.75h-23c-0.414 0-0.75 0.336-0.75 0.75v0 18.072c0 0.414 0.336 0.75 0.75 0.75h5.821v4.178c0 0.292 0.167 0.545 0.411 0.668l0.004 0.002c0.096 0.050 0.21 0.080 0.331 0.080 0.001 0 0.002 0 0.004 0h-0c0.17-0 0.326-0.057 0.452-0.152l-0.002 0.001 6.371-4.777zM14.692 19.473l-5.371 4.027v-3.428c-0-0.414-0.336-0.75-0.75-0.75h-5.821v-16.572h21.5v16.572h-9.107c-0.17 0-0.326 0.057-0.452 0.152l0.002-0.001zM30 9.25h-1c-0.414 0-0.75 0.336-0.75 0.75s0.336 0.75 0.75 0.75v0h0.25v14.215h-4.965c-0.414 0-0.75 0.336-0.75 0.75v0 2.785l-4.514-3.385c-0.123-0.094-0.279-0.15-0.449-0.15-0 0-0 0-0.001 0h-4.572c-0.414 0-0.75 0.336-0.75 0.75s0.336 0.75 0.75 0.75v0h4.322l5.514 4.135c0.123 0.094 0.28 0.15 0.449 0.15 0.123 0 0.238-0.030 0.34-0.082l-0.004 0.002c0.247-0.126 0.414-0.378 0.414-0.67v0-3.535h4.965c0.414-0 0.75-0.336 0.75-0.75v0-15.715c-0-0.414-0.336-0.75-0.75-0.75v0z"/>
</symbol>

<!-- services -->
<symbol viewBox="0 -3 33 32" id="monitor" xmlns="http://www.w3.org/2000/svg">
	<path d="M30.000,21.000 L17.000,21.000 L17.000,24.000 L22.047,24.000 C22.600,24.000 23.047,24.448 23.047,25.000 C23.047,25.552 22.600,26.000 22.047,26.000 L10.047,26.000 C9.494,26.000 9.047,25.552 9.047,25.000 C9.047,24.448 9.494,24.000 10.047,24.000 L15.000,24.000 L15.000,21.000 L2.000,21.000 C0.898,21.000 0.000,20.103 0.000,19.000 L0.000,2.000 C0.000,0.897 0.898,0.000 2.000,0.000 L30.000,0.000 C31.103,0.000 32.000,0.897 32.000,2.000 L32.000,19.000 C32.000,20.103 31.103,21.000 30.000,21.000 ZM2.000,2.000 L2.000,19.000 L29.997,19.000 L30.000,2.000 L2.000,2.000 Z"/>
</symbol>

<symbol viewBox="0 0 26.001 26.001" id="paper" xmlns="http://www.w3.org/2000/svg">
	<path d="M25.911,17.597c0.229,0.503,0.007,1.096-0.496,1.324l-11,5c-0.131,0.06-0.272,0.09-0.414,0.09
		c-0.099,0-0.198-0.015-0.294-0.044l-13-4c-0.528-0.163-0.824-0.723-0.662-1.25c0.162-0.528,0.723-0.827,1.25-0.662l12.638,3.889
		l10.654-4.843C25.095,16.868,25.684,17.096,25.911,17.597z M13.933,17.944L1.295,14.055c-0.527-0.165-1.087,0.134-1.25,0.662
		c-0.163,0.527,0.134,1.087,0.662,1.25l13,4c0.096,0.029,0.195,0.044,0.294,0.044c0.142,0,0.283-0.03,0.414-0.09l11-5
		c0.503-0.229,0.725-0.821,0.496-1.324c-0.228-0.501-0.816-0.726-1.324-0.496L13.933,17.944z M0.002,11.061
		c-0.021-0.42,0.223-0.808,0.61-0.972l7.301-3.077C9.35,6.406,10.034,5.65,10.034,2.99c0-0.307,0.141-0.598,0.383-0.787
		c0.242-0.19,0.557-0.257,0.856-0.184l12.939,3.188c0.446,0.11,0.761,0.511,0.761,0.971V6.33c0.001,2.958,0.002,4.911-3.621,6.438
		c-2.425,1.022-6.88,3.125-6.924,3.147c-0.134,0.064-0.281,0.096-0.427,0.096c-0.099,0-0.198-0.015-0.294-0.044l-13-4
		C0.305,11.843,0.023,11.481,0.002,11.061z M3.924,10.864l10,3.078c1.112-0.523,4.562-2.136,6.65-3.016
		c2.211-0.932,2.385-1.649,2.397-3.964l-10.99-2.709c-0.193,2.052-0.971,3.624-3.29,4.602L3.924,10.864z"/>
</symbol>

<symbol viewBox="0 0 16 16" id="camera" xmlns="http://www.w3.org/2000/svg">
	<path d="M15 3.5h-4l-.22-.65A1.24 1.24 0 0 0 9.6 2H6.4a1.24 1.24 0 0 0-1.18.85L5 3.5H1a1 1 0 0 0-1 1V13a1 1 0 0 0 1 1h14a1 1 0 0 0 1-1V4.5a1 1 0 0 0-1-1zm-.25 9.25H1.25v-8H5.9l.5-1.5h3.2l.5 1.5h4.65z"/>
	<path d="M8 6a2.59 2.59 0 0 0-2.67 2.5A2.59 2.59 0 0 0 8 11a2.59 2.59 0 0 0 2.67-2.5A2.59 2.59 0 0 0 8 6zm0 3.75A1.35 1.35 0 0 1 6.58 8.5 1.35 1.35 0 0 1 8 7.25 1.35 1.35 0 0 1 9.42 8.5 1.35 1.35 0 0 1 8 9.75z"/>
	<ellipse cx="12.84" cy="6.63" rx=".67" ry=".63"/>
</symbol>

<!-- case -->
<symbol viewBox="0 0 24 24" id="lightbulb" xmlns="http://www.w3.org/2000/svg">
	<path d="M12.662 1.204h-.324A6.35 6.35 0 0 0 6 7.496c0 1.866 1.182 3.69 2.045 5.023a6.572 6.572 0 0 1 .752 1.324 10.398 10.398 0 0 1 .114 1.235 3.628 3.628 0 0 0 .77 2.473l-.518.453a.804.804 0 0 0 .066 1.264l.414.293-.364.263a.804.804 0 0 0-.333.689.794.794 0 0 0 .37.641l2.45 1.625a1.311 1.311 0 0 0 .723.22h.016a1.316 1.316 0 0 0 .73-.22l2.43-1.613a.803.803 0 0 0 .059-1.34l-.367-.265.418-.295a.806.806 0 0 0 .062-1.263l-.518-.452a3.626 3.626 0 0 0 .77-2.476 10.735 10.735 0 0 1 .114-1.232 6.64 6.64 0 0 1 .75-1.323C17.817 11.186 19 9.358 19 7.496a6.35 6.35 0 0 0-6.338-6.292zm2.245 19.265l-2.225 1.476a.41.41 0 0 1-.185.053h-.002a.32.32 0 0 1-.177-.053l-2.225-1.475 1.264-.923-1.35-.953.68-.594h3.625l.68.594-1.35.953zM12 17v-3h1v3zm4.114-5.023a5.595 5.595 0 0 0-.897 1.702 11.287 11.287 0 0 0-.126 1.344A2.598 2.598 0 0 1 14.46 17H14v-3.421l1.075-3.325-.951-.309L13.136 13h-1.272l-.988-3.055-.951.309L11 13.579V17h-.46a2.59 2.59 0 0 1-.63-1.973 11.574 11.574 0 0 0-.127-1.348 5.597 5.597 0 0 0-.898-1.704C8.089 10.748 7 9.067 7 7.496a5.343 5.343 0 0 1 5.338-5.292h.324A5.343 5.343 0 0 1 18 7.496c0 1.566-1.09 3.251-1.886 4.48z"/>
</symbol>

<!-- stat -->
<symbol viewBox="-4 0 32 32" id="heart" xmlns="http://www.w3.org/2000/svg">
	<path d="M18.188 6.094c5.188 0 6.906 6 5.094 9.281-2.781 5.094-11.281 10.5-11.281 10.5s-8.531-5.406-11.281-10.5c-1.813-3.281-0.125-9.281 5.094-9.281 4.813 0 6.031 4.156 6.188 4.781 0.156-0.625 1.375-4.781 6.188-4.781z"/>
</symbol>

<symbol viewBox="-0.5 0 25 25" id="tag" xmlns="http://www.w3.org/2000/svg">
	<path d="M14.11 3.24558L2.74998 14.6056C2.54998 14.8056 2.54998 15.1156 2.74998 15.3156L9.17998 21.7456C9.37998 21.9456 9.68998 21.9456 9.88998 21.7456L21.25 10.3856C21.34 10.2956 21.4 10.1656 21.4 10.0356V3.60558C21.4 3.32558 21.18 3.10558 20.9 3.10558H14.47C14.33 3.09558 14.21 3.15558 14.11 3.24558Z" />
	<path d="M17.83 7.66559C18.3822 7.66559 18.83 7.21787 18.83 6.66559C18.83 6.1133 18.3822 5.66559 17.83 5.66559C17.2777 5.66559 16.83 6.1133 16.83 6.66559C16.83 7.21787 17.2777 7.66559 17.83 7.66559Z"/>
</symbol>

<symbol viewBox="0 0 24 24" id="like" xmlns="http://www.w3.org/2000/svg">
	<path d="M15.9 4.5C15.9 3 14.418 2 13.26 2c-.806 0-.869.612-.993 1.82-.055.53-.121 1.174-.267 1.93-.386 2.002-1.72 4.56-2.996 5.325V17C9 19.25 9.75 20 13 20h3.773c2.176 0 2.703-1.433 2.899-1.964l.013-.036c.114-.306.358-.547.638-.82.31-.306.664-.653.927-1.18.311-.623.27-1.177.233-1.67-.023-.299-.044-.575.017-.83.064-.27.146-.475.225-.671.143-.356.275-.686.275-1.329 0-1.5-.748-2.498-2.315-2.498H15.5S15.9 6 15.9 4.5zM5.5 10A1.5 1.5 0 0 0 4 11.5v7a1.5 1.5 0 0 0 3 0v-7A1.5 1.5 0 0 0 5.5 10z"/>
</symbol>

<symbol viewBox="0 0 24 24" id="star" xmlns="http://www.w3.org/2000/svg">
	<path d="m12 17.328-5.403 3.286a.75.75 0 0 1-1.12-.813l1.456-6.155-4.796-4.123a.75.75 0 0 1 .428-1.316l6.303-.517 2.44-5.835a.75.75 0 0 1 1.384 0l2.44 5.835 6.303.517a.75.75 0 0 1 .427 1.316l-4.795 4.123 1.456 6.155a.75.75 0 0 1-1.12.813L12 17.328z"/>
</symbol>

<symbol viewBox="0 0 32 32" id="banner" xmlns="http://www.w3.org/2000/svg">
	<path d="M22,3H10C8.9,3,8,3.9,8,5v22.6c0,0.8,0.5,1.5,1.2,1.8c0.8,0.3,1.6,0.1,2.2-0.4l4.6-4.6l4.6,4.6c0.4,0.4,0.9,0.6,1.4,0.6
	c0.3,0,0.5,0,0.8-0.2c0.8-0.3,1.2-1,1.2-1.8V5C24,3.9,23.1,3,22,3z"/>
</symbol>

<!-- team -->
<symbol viewBox="0 0 670 128" id="back" xmlns="http://www.w3.org/2000/svg">
	<path d="M0 188V125C233 39 291 52.5 421.5 85.5C525.9 111.9 640.667 75.8333 667.5 0V188H0Z" />
</symbol>

<symbol viewBox="0 0 670 128" id="up" xmlns="http://www.w3.org/2000/svg">
	<path d="M0.1 126C234 40 292 53.5 422.5 86.5C526.9 112.9 641.667 76.8333 668 1" />
</symbol>

<symbol viewBox="0 0 970 128" id="up-dinamic" xmlns="http://www.w3.org/2000/svg">
	<path
		d="M961.5 1C934.667 76.8333 819.9 112.9 715.5 86.5C585 53.5 527 40 294 126C111.6 190 123.3333 152.667 2 126" />
</symbol>

<!-- contacts -->

<symbol id="twitter" viewBox="0 0 640 640" xmlns="http://www.w3.org/2000/svg">
	<g>
		<path
			d="M640.012 121.513c-23.528 10.524-48.875 17.516-75.343 20.634 27.118-16.24 47.858-41.977 57.756-72.615-25.347 14.988-53.516 25.985-83.363 31.866-24-25.5-58.087-41.35-95.848-41.35-72.508 0-131.21 58.736-131.21 131.198 0 10.228 1.134 20.232 3.355 29.882-109.1-5.528-205.821-57.757-270.57-137.222a131.423 131.423 0 0 0-17.764 66c0 45.497 23.102 85.738 58.347 109.207-21.508-.638-41.74-6.638-59.505-16.359v1.642c0 63.627 45.225 116.718 105.32 128.718-11.008 2.988-22.63 4.642-34.606 4.642-8.48 0-16.654-.874-24.78-2.35 16.783 52.11 65.233 90.095 122.612 91.205-44.989 35.245-101.493 56.233-163.09 56.233-10.63 0-20.988-.65-31.334-1.89 58.229 37.359 127.206 58.997 201.31 58.997 241.42 0 373.552-200.069 373.552-373.54 0-5.764-.13-11.35-.366-16.996 25.642-18.343 47.87-41.493 65.469-67.844l.059-.059z" />
	</g>
</symbol>
<symbol id="facebook" viewBox="0 0 640 640" xmlns="http://www.w3.org/2000/svg">
	<g>
		<path d="M380.001 120.001h99.993V0h-99.993c-77.186 0-139.986 62.8-139.986 139.986v60h-80.009V320h79.985v320h120.013V320h99.994l19.996-120.013h-119.99v-60.001c0-10.843 9.154-19.996 19.996-19.996v.012z"/>
	</g>
</symbol>
<symbol id="gogglepl" viewBox="0 -4 20 20" xmlns="http://www.w3.org/2000/svg">
	<g transform="translate(-420.000000, -7443.000000)">
            <g transform="translate(56.000000, 160.000000)">
                <path d="M382,7287.70673 L382,7285.82629 L380,7285.82629 L380,7287.70673 L378,7287.70673 L378,7289.58717 L380,7289.58717 L380,7291.4676 L382,7291.4676 L382,7289.58717 L384,7289.58717 L384,7287.70673 L382,7287.70673 Z M376.4,7287.70673 C376.454,7287.70673 376.5,7288.5266 376.5,7288.92055 C376.5,7292.34671 374.058,7295 370.377,7295 C366.852,7295 364,7292.31568 364,7289.00141 C364,7285.6862 366.852,7283 370.377,7283 C372.099,7283 373.539,7283.58105 374.65,7284.55794 L372.919,7286.10648 C372.446,7285.67774 371.616,7285.14276 370.377,7285.14276 C368.2,7285.14276 366.423,7286.76087 366.423,7288.85098 C366.423,7290.94108 368.2,7292.48304 370.377,7292.48304 C372.901,7292.48304 373.849,7290.52738 373.994,7289.58717 L370,7289.58717 L370,7287.70673 L376.4,7287.70673 Z" id="google_plus-[#165]">

</path>
            </g>
        </g>
</symbol>
<symbol id="rss" viewBox="0 0 402.041 402.04" xmlns="http://www.w3.org/2000/svg">
	<g>
		<path d="M54.816,292.382c-15.229,0-28.169,5.331-38.831,15.988C5.33,319.026,0,331.969,0,347.197
			c0,15.232,5.325,28.172,15.985,38.828c10.662,10.657,23.606,15.988,38.831,15.988c15.227,0,28.168-5.331,38.828-15.988
			c10.656-10.656,15.986-23.596,15.986-38.828c0-15.229-5.33-28.171-15.986-38.827C82.987,297.713,70.046,292.382,54.816,292.382z"
			/>
		<path d="M181.01,221.002c-21.51-21.698-46.158-38.97-73.948-51.816c-27.79-12.85-56.914-20.511-87.366-22.985h-1.425
			c-4.949,0-9.042,1.619-12.275,4.854C1.997,154.477,0,158.953,0,164.472v38.543c0,4.757,1.569,8.85,4.708,12.279
			c3.14,3.429,7.089,5.332,11.848,5.708c43.586,4.189,80.845,21.752,111.773,52.678c30.93,30.926,48.49,68.187,52.677,111.771
			c0.382,4.764,2.284,8.712,5.712,11.847c3.427,3.148,7.517,4.72,12.275,4.72h38.545c5.517,0,9.989-1.995,13.415-5.996
			c3.621-3.812,5.236-8.381,4.863-13.709c-2.478-30.447-10.14-59.573-22.987-87.361C219.983,267.16,202.708,242.514,181.01,221.002z
			"/>
		<path d="M367.728,239.701c-20.365-45.585-48.345-86.078-83.936-121.482c-35.405-35.594-75.896-63.572-121.485-83.939
			C116.723,13.917,68.996,2.494,19.126,0.02h-0.855c-4.949,0-9.136,1.713-12.563,5.14C1.903,8.583,0,12.964,0,18.294v40.825
			c0,4.76,1.667,8.897,4.996,12.419c3.33,3.523,7.373,5.376,12.132,5.57c40.924,2.478,79.799,12.188,116.63,29.127
			c36.83,16.94,68.806,38.972,95.93,66.09c27.118,27.123,49.149,59.101,66.089,95.931c16.94,36.836,26.557,75.705,28.839,116.627
			c0.195,4.764,2.046,8.809,5.564,12.139c3.524,3.329,7.762,4.999,12.71,4.999h40.823c5.331,0,9.701-1.902,13.134-5.715
			c3.809-3.806,5.517-8.274,5.144-13.415C399.52,333.017,388.093,285.291,367.728,239.701z"/>
	</g>
</symbol>
<symbol id="LinkedIn" viewBox="0 0 20 20" xmlns="http://www.w3.org/2000/svg">
	 <g transform="translate(-180.000000, -7479.000000)">
            <g transform="translate(56.000000, 160.000000)">
                <path d="M144,7339 L140,7339 L140,7332.001 C140,7330.081 139.153,7329.01 137.634,7329.01 C135.981,7329.01 135,7330.126 135,7332.001 L135,7339 L131,7339 L131,7326 L135,7326 L135,7327.462 C135,7327.462 136.255,7325.26 139.083,7325.26 C141.912,7325.26 144,7326.986 144,7330.558 L144,7339 L144,7339 Z M126.442,7323.921 C125.093,7323.921 124,7322.819 124,7321.46 C124,7320.102 125.093,7319 126.442,7319 C127.79,7319 128.883,7320.102 128.883,7321.46 C128.884,7322.819 127.79,7323.921 126.442,7323.921 L126.442,7323.921 Z M124,7339 L129,7339 L129,7326 L124,7326 L124,7339 Z" />
            </g>
        </g>
</symbol>
<symbol id="Skype" viewBox="0 0 20 20" xmlns="http://www.w3.org/2000/svg">
	 <g transform="translate(-220.000000, -7439.000000)">
            <g transform="translate(56.000000, 160.000000)">
                <path d="M175.89681,7295.36998 C179.825962,7294.55179 180.342823,7290.96907 178.817578,7289.31175 C178.086879,7288.50353 176.992351,7288.05506 174.390821,7287.42722 C173.204069,7287.15116 170.957247,7286.63394 171.78929,7285.40814 C172.062922,7284.95868 172.748016,7284.6896 173.660122,7284.64476 C176.803849,7284.43249 176.146119,7287.84777 178.315919,7286.84322 C179.319236,7286.34991 179.228026,7284.73445 178.132485,7283.79168 C175.732631,7281.84237 168.868523,7281.86529 168.868523,7286.12568 C168.868523,7290.27146 174.829645,7289.35062 176.352863,7291.01691 C177.141329,7291.98459 176.298137,7293.54623 173.796938,7293.4406 C170.95522,7293.23331 171.709228,7290.56845 169.964064,7290.56845 C168.640496,7290.56845 168.184443,7291.64575 168.868523,7293.03698 C170.052234,7295.45369 173.381423,7295.90116 175.942415,7295.36998 L175.89681,7295.36998 L175.89681,7295.36998 Z M177.129167,7298.82513 C175.778236,7298.38365 175.845124,7298.41155 174.618848,7298.46636 C169.787723,7298.69159 166.054167,7295.66497 164.853227,7291.55606 C164.353595,7289.71437 164.918088,7288.08994 164.351568,7286.30506 C162.607418,7281.63408 167.70812,7277.50225 171.834896,7279.5283 C172.200752,7279.70868 172.428778,7279.75253 173.843557,7279.75253 C175.12152,7279.75253 175.623178,7279.79738 176.261653,7279.97776 C179.136815,7280.6953 181.464714,7282.53499 182.696058,7285.09322 C183.472362,7286.66383 183.745993,7288.28029 183.563572,7290.11899 C183.472362,7291.1076 183.472362,7291.19729 183.700388,7291.78029 C185.124288,7295.89418 181.228579,7299.88948 177.173759,7298.82613 L177.129167,7298.82613 L177.129167,7298.82513 Z" />
            </g>
        </g>
</symbol>
<symbol id="Vimeo" viewBox="0 -1.5 20 20" xmlns="http://www.w3.org/2000/svg">
	 <g transform="translate(-60.000000, -7560.000000)">
            <g transform="translate(56.000000, 160.000000)">
                <path d="M23.99,7403.93262 C23.9,7405.8454 22.541,7408.46538 19.911,7411.79058 C17.192,7415.26353 14.891,7417 13.009,7417 C11.843,7417 10.857,7415.94019 10.051,7413.82155 L8.437,7407.99457 C7.839,7405.87495 7.197,7404.81514 6.51,7404.81514 C6.36,7404.81514 5.837,7405.12441 4.941,7405.74296 L4,7404.55117 C4.986,7403.69722 5.957,7402.84326 6.913,7401.99029 C8.228,7400.87138 9.214,7400.28337 9.871,7400.22427 C11.425,7400.07751 12.381,7401.12156 12.74,7403.35839 C13.128,7405.77251 13.397,7407.2726 13.547,7407.8616 C13.995,7409.86303 14.488,7410.86374 15.026,7410.86374 C15.444,7410.86374 16.072,7410.21662 16.908,7408.92141 C17.745,7407.6262 18.193,7406.64026 18.253,7405.96359 C18.372,7404.84469 17.924,7404.28622 16.908,7404.28622 C16.43,7404.28622 15.937,7404.38865 15.429,7404.59451 C16.415,7401.44561 18.298,7399.91499 21.077,7400.00364 C23.138,7400.06274 24.11,7401.37174 23.99,7403.93262 L23.99,7403.93262 Z" />
            </g>
        </g>
</symbol>
<symbol id="tmblr" viewBox="0 0 49.102 49.102" xmlns="http://www.w3.org/2000/svg">
	 <g>
	<path d="M38.16,42.016c-0.037-0.736-0.167-1.504-0.413-2.161c-0.048-0.129-0.142-0.195-0.244-0.234
		c-0.036-0.177-0.167-0.318-0.403-0.291c-2.064,0.236-4.355,0.678-6.248-0.492c-2.676-1.653-2.302-4.643-2.357-7.224
		c-0.073-3.42-0.091-6.856,0.08-10.274c2.092,0.353,4.633,0.79,6.761,0.449c0.521,0.04,1.048,0.075,1.57,0.046
		c0.122-0.006,0.215-0.049,0.295-0.105c0.278-0.035,0.528-0.236,0.529-0.611c0.012-2.539,0.091-5.139-0.113-7.67
		c-0.032-0.394-0.547-0.596-0.804-0.38c-1.275-0.422-2.742-0.323-4.072-0.365c-1.351-0.043-2.789-0.255-4.113,0.052
		c0.01-0.043,0.026-0.082,0.026-0.132c-0.016-3.717,0.23-7.496,0.036-11.209c0.104-0.207,0.073-0.483-0.103-0.654
		c-0.005-0.005-0.007-0.01-0.012-0.015c-0.054-0.049-0.117-0.09-0.198-0.114c-2.616-0.788-5.742-0.765-8.418-0.335
		c-0.223,0.036-0.305,0.212-0.286,0.389c-0.04,0.068-0.068,0.147-0.08,0.237c-0.718,5.489-2.722,10.592-8.338,12.589
		c-0.152,0.054-0.224,0.165-0.233,0.281c-0.022,0.014-0.044,0.027-0.06,0.052c-0.661,1.002-0.609,2.386-0.635,3.556
		c-0.027,1.204-0.021,2.485,0.271,3.668c-0.087,0.207-0.02,0.379,0.133,0.512c0.092,0.234,0.316,0.308,0.508,0.252
		c0.031,0.009,0.06,0.019,0.092,0.026c0.714,0.164,1.474,0.181,2.201,0.231c0.756,0.051,1.534,0.142,2.296,0.114
		c-1.297,6.636-1.364,17.189,2.888,22.706c4.741,6.152,13.115,4.329,19.344,2.08c0.063-0.023,0.111-0.058,0.156-0.095
		c0.266,0.043,0.58-0.125,0.571-0.452C38.748,45.085,38.61,43.456,38.16,42.016z M17.805,40.578
		c-1.851-6.01-1.306-12.345-1.282-18.522c0.3-0.25,0.34-0.785-0.148-0.886c-0.864-0.179-1.757-0.16-2.636-0.189
		c-0.37-0.012-1.513-0.18-2.184-0.097c0.01-1.155-0.147-2.326-0.149-3.482c-0.002-1.065,0.218-2.216-0.045-3.249
		c0.024,0,0.045,0.005,0.07,0.001c6.17-0.955,8.791-7.461,9.289-13.016c2.404,0.151,4.815,0.416,7.212,0.523
		c-0.018,0.106-0.031,0.214-0.047,0.32c-1.484-0.014-2.961-0.065-4.44-0.217c-0.103-0.011-0.101,0.149,0,0.16
		c1.466,0.166,2.938,0.251,4.413,0.236c-0.093,0.616-0.17,1.238-0.228,1.864c-2.231-0.14-4.48-0.094-6.715-0.189
		c-0.126-0.005-0.126,0.189,0,0.196c2.219,0.12,4.478,0.292,6.7,0.187c-0.155,1.776-0.188,3.579-0.147,5.362
		c-1.356-0.098-2.705-0.026-4.054,0.164c-0.085,0.012-0.066,0.162,0.02,0.151c1.345-0.167,2.687-0.193,4.038-0.151
		c0.02,0.8,0.052,1.597,0.09,2.383c-1.302-0.025-2.609-0.007-3.91,0.018c-0.06,0.001-0.06,0.092,0,0.093
		c1.304,0.025,2.612,0.043,3.916,0.018c0.006,0.122,0.011,0.245,0.017,0.366c0.024,0.454,0.487,0.602,0.795,0.45
		c0.026,0.063,0.067,0.12,0.136,0.147c1.307,0.514,2.833,0.464,4.222,0.596c1.258,0.119,2.599,0.371,3.858,0.175
		c-0.069,0.553-0.112,1.111-0.148,1.671c-2.982-0.375-6.001-0.444-9.002-0.378c-0.087,0.002-0.087,0.136,0,0.135
		c3.011-0.027,5.99,0.174,8.987,0.416c-0.039,0.665-0.059,1.332-0.063,1.999c-2.878-0.467-5.815-0.499-8.718-0.297
		c-0.078,0.005-0.079,0.127,0,0.122c2.935-0.172,5.805,0.014,8.718,0.319c-0.003,0.924,0.015,1.847,0.057,2.758
		c-0.022,0-0.043,0-0.065,0c-0.046-0.042-0.087-0.089-0.159-0.106c-1.207-0.292-2.515-0.147-3.755-0.161
		c-1.406-0.015-2.811-0.042-4.217-0.068c-0.196-0.004-0.329,0.126-0.391,0.285c-0.056,0.065-0.099,0.144-0.107,0.251
		c-0.085,1.289-0.167,2.575-0.239,3.861c-1.711,0.213-3.373,0.23-5.084-0.059c-0.091-0.015-0.131,0.124-0.039,0.14
		c1.696,0.304,3.409,0.361,5.113,0.094c-0.108,1.972-0.186,3.945-0.173,5.927c0.005,0.81-0.024,1.732,0,2.669
		c-1.008,0.08-2.008,0.114-3.028,0.041c-0.087-0.006-0.086,0.128,0,0.135c1.009,0.082,2.029,0.095,3.037-0.006
		c0.027,0.827,0.095,1.661,0.281,2.434c-1.171,0.154-2.338,0.235-3.531,0.189c-0.094-0.004-0.093,0.141,0,0.146
		c1.199,0.058,2.397,0.019,3.578-0.164c0.115,0.434,0.258,0.852,0.461,1.231c0.273,0.509,0.607,0.943,0.981,1.32
		c-1.678,0.028-3.346-0.018-5.018-0.207c-0.073-0.008-0.071,0.105,0,0.114c1.718,0.22,3.443,0.319,5.172,0.253
		c1.931,1.803,4.928,2.035,7.474,1.291c-0.002,0.554,0.09,1.102,0.203,1.647c-3.222-0.263-6.459-0.392-9.687-0.575
		c-0.073-0.004-0.073,0.109,0,0.114c3.231,0.224,6.464,0.503,9.7,0.646c0.011,0,0.016-0.007,0.024-0.009
		c0.074,0.344,0.151,0.687,0.219,1.029c0.048,0.243,0.099,0.486,0.147,0.73c-4.14,0.042-8.273,0.013-12.411-0.173
		c-0.078-0.003-0.077,0.116,0,0.12c4.146,0.23,8.3,0.341,12.452,0.257c0.124,0.622,0.247,1.245,0.377,1.866
		C30.575,48.578,20.634,49.763,17.805,40.578z"/>
	<path d="M37.147,45.81c-3.866,0.103-7.732,0.059-11.595-0.137c-0.045-0.002-0.044,0.066,0,0.07
		c3.864,0.279,7.721,0.369,11.595,0.264C37.273,46.003,37.273,45.807,37.147,45.81z"/>
	<path d="M27.238,30.878c-1.263-0.047-2.531-0.01-3.795-0.003c-0.106,0.001-0.106,0.164,0,0.164
		c1.264,0.007,2.532,0.044,3.795-0.003C27.34,31.033,27.34,30.882,27.238,30.878z"/>
	<path d="M27.027,27.491c-2.305-0.102-4.652-0.07-6.958,0.016c-0.099,0.004-0.099,0.15,0,0.154
		c2.305,0.086,4.653,0.118,6.958,0.016C27.147,27.672,27.147,27.497,27.027,27.491z"/>
	<path d="M27.027,22.222c-1.615-0.023-3.235,0-4.849,0.033c-0.076,0.002-0.076,0.117,0,0.118
		c1.615,0.033,3.235,0.055,4.849,0.033C27.145,22.403,27.146,22.223,27.027,22.222z"/>
	<path d="M36.295,19.845c-4.338-1.035-8.827-1.311-13.273-1.159c-0.069,0.002-0.069,0.109,0,0.108
		c4.485-0.083,8.817,0.431,13.229,1.214C36.356,20.026,36.402,19.87,36.295,19.845z"/>
	<path d="M27.027,6.625c-1.294-0.148-2.581,0.032-3.822,0.41c-0.123,0.037-0.071,0.23,0.053,0.193
		c1.24-0.366,2.482-0.464,3.769-0.426C27.144,6.806,27.138,6.638,27.027,6.625z"/>
</g>
</symbol>
</svg>


